<svg width="1440" height="320" viewBox="0 0 1440 320" fill="none" xmlns="http://www.w3.org/2000/svg">
<g clip-path="url(#clip0_124_114)">
<path d="M1440 224L1380 234.7C1320 245 1200 267 1080 277.3C960 288 840 288 720 282.7C600 277 480 267 360 240C240 213 120 171 60 149.3L0 128V320H60C120 320 240 320 360 320C480 320 600 320 720 320C840 320 960 320 1080 320C1200 320 1320 320 1380 320H1440V224Z" fill="white"/>
</g>
<defs>
<clipPath id="clip0_124_114">
<rect width="1440" height="320" fill="white" transform="translate(1440 320) rotate(-180)"/>
</clipPath>
</defs>
</svg>
